<?xml version="1.0" encoding="utf-8"?>
<!-- Generator: Adobe Illustrator 23.1.1, SVG Export Plug-In . SVG Version: 6.00 Build 0)  -->
<svg version="1.1" id="Capa_1" xmlns="http://www.w3.org/2000/svg" xmlns:xlink="http://www.w3.org/1999/xlink" x="0px" y="0px"
	 viewBox="0 0 77.8 77.8" style="enable-background:new 0 0 77.8 77.8;" xml:space="preserve">
<style type="text/css">
	.st0{fill:#A1CCD9;}
	.st1{fill:#5C6CAB;}
</style>
<g>
	<circle class="st0" cx="38.9" cy="38.9" r="38.9"/>
	<g>
		<g>
			<path class="st1" d="M17.48,61.65V35.91h-4.29v-6.04h4.29v-1.3c0-3.57,0.71-6.89,3.25-9.49c1.88-1.95,4.62-2.93,7.6-2.93
				c2.21,0,3.9,0.33,5.14,0.72L32.5,23.5c-0.65-0.26-1.56-0.39-2.6-0.39c-2.86,0-3.9,2.47-3.9,5.27v1.5h5.53v6.04H26v25.74H17.48z"
				/>
			<path class="st1" d="M34.51,29.87l1.69,13.72c0.46,3.45,0.84,6.63,1.1,9.62h0.2c0.52-2.99,1.17-6.5,1.75-9.49l2.8-13.85h6.56
				l2.73,13.52c0.65,3.58,1.24,6.7,1.62,9.82h0.2c0.19-2.99,0.58-6.31,1.1-9.75l1.95-13.59h8.39l-8.19,31.79H49.2l-2.4-11.12
				c-0.65-2.93-1.24-6.31-1.62-9.95h-0.13c-0.39,3.71-1.1,7.02-1.82,10.01l-2.73,11.05h-7.28l-7.8-31.79H34.51z"/>
		</g>
	</g>
</g>
</svg>
