<?xml version="1.0" encoding="utf-8"?>
<!-- Generator: Adobe Illustrator 23.1.1, SVG Export Plug-In . SVG Version: 6.00 Build 0)  -->
<svg version="1.1" id="Capa_1" xmlns="http://www.w3.org/2000/svg" xmlns:xlink="http://www.w3.org/1999/xlink" x="0px" y="0px"
	 viewBox="0 0 46.38 43.13" style="enable-background:new 0 0 46.38 43.13;" xml:space="preserve">
<style type="text/css">
	.st0{fill:#EF424B;}
</style>
<path class="st0" d="M43.9,18.67L43.9,18.67c1.63-2.1,2.58-4.74,2.48-7.62c-0.2-5.7-4.69-10.45-10.52-11
	c-5.82-0.55-10.91,3-12.67,8.01c-1.76-5.02-6.85-8.56-12.67-8.01c-5.82,0.55-10.31,5.3-10.52,11c-0.1,2.87,0.85,5.52,2.48,7.62h0
	l0.01,0.02c0.2,0.25,0.41,0.5,0.62,0.74l20.07,23.7l20.1-23.73c0.2-0.22,0.39-0.44,0.57-0.68L43.9,18.67z"/>
</svg>
